# xmcd CD database file
#
# Track frame offsets:
#	150
#	13163
#	27512
#	41366
#	56727
#	69531
#	81005
#	94015
#	108844
#	123198
#	136326
#	149695
#	162702
#	177307
#	191594
#	203812
#	217611
#	230354
#	244430
#	258880
#	272173
#
# Disc length: 3806 seconds
#
# Revision: 0
# Processed by: cddbd v1.5.2PL0 Copyright (c) Steve Scherf et al.
# Submitted via: CDex 1.70beta2
#
DISCID=2f0edc15
DTITLE=Duke Ellington - Giants of Jazz Disc 1
DYEAR=1900
DGENRE=Jazz
TTITLE0=East St. Louis Toodle‑Oo: Duke Ellington and His Kentucky Club Orchestra
TTITLE1=Creole Love Call: Duke Ellington and His Orchestra
TTITLE2=Black and Tan Fantasie: Duke Ellington and His Orchestra 
TTITLE3=Black and Tan Fantasy: Duke Ellington and His Orchestra 
TTITLE4=Black Beauty: Duke Ellington and His Orchestra
TTITLE5=Jubilee Stomp: Duke Ellington and His Orchestra 
TTITLE6=Yellow Dog Blues: Duke Ellington and His Orchestra
TTITLE7=Hot and Bothered: Duke Ellington and His Orchestra
TTITLE8=The Mooche: Duke Ellington and His Cotton Club Orchestra 
TTITLE9=Shout ‘Em, Aunt Tillie: Duke Ellington and His Cotton Club Orchestra 
TTITLE10=Ring Dem Bells: Duke Ellington and His Orchestra
TTITLE11=Mood Indigo: The Jungle Band
TTITLE12=Rockin’ in Rhythm: The Harlem Footwarmers
TTITLE13=It Don’t Mean a Thing (If It Ain’t Got That Swing): Duke Ellington and His Orchestra 
TTITLE14=Baby, When You Ain’t There: Duke Ellington and His Famous Orchestra 
TTITLE15=Bugle Call Rag: Duke Ellington and His Famous Orchestra 
TTITLE16=Merry Go Round: Duke Ellington and His Famous Orchestra 
TTITLE17=Harlem Speaks: Duke Ellington and His Famous Orchestra 
TTITLE18=In the Shade of the Old Apple Tree: Duke Ellington and His Famous Orchestra 
TTITLE19=Merry Go Round: Duke Ellington and His Orchestra
TTITLE20=Truckin’: Duke Ellington and His Famous Orchestra
EXTD=
EXTT0=
EXTT1=
EXTT2=
EXTT3=
EXTT4=
EXTT5=
EXTT6=
EXTT7=
EXTT8=
EXTT9=
EXTT10=
EXTT11=
EXTT12=
EXTT13=
EXTT14=
EXTT15=
EXTT16=
EXTT17=
EXTT18=
EXTT19=
EXTT20=
PLAYORDER=
